# xmcd
#
# Track frame offsets:
#	150
#	15545
#	31027
#	43735
#	58962
#	71660
#	92130
#	106560
#	122720
#	137987
#
# Disc length: 2009 seconds
#
# Revision: 1
# Processed by: cddbd v1.5.2PL0 Copyright (c) Steve Scherf et al.
# Submitted via: audiograbber 1.83.01
#
DISCID=8407d70a
DTITLE=New Orleans Nightbirds - Smile, It's Christmas
DYEAR=1900
DGENRE=Jazz
TTITLE0=Blue christmas (Hayes)
TTITLE1=Santa Claus is coming to town (Gillespie - Coots)
TTITLE2=Auld lang syne (trad.)
TTITLE3=The little boy that Santa Claus forgot (Leach - Connor)
TTITLE4=White christmas (Berlin)
TTITLE5=Winter wonderland (Bernard - Smith)
TTITLE6=Medley (Mistletoe and holly, It's beginning to look like christmas )
TTITLE7=Marshmellow world (Sigman - De Rose)
TTITLE8=I saw mummy kissing Santa Claus (Connor)
TTITLE9=I'll be home for christmas (Gannon - Kent)
EXTD=
EXTT0=
EXTT1=
EXTT2=
EXTT3=
EXTT4=
EXTT5=
EXTT6=
EXTT7=
EXTT8=
EXTT9=
PLAYORDER=
